<svg width="39" height="37" viewBox="0 0 39 37" fill="none" xmlns="http://www.w3.org/2000/svg">
<g clip-path="url(#clip0_166_1643)">
<path d="M3.44 0H35.52C37.42 0 38.96 1.54 38.96 3.44C38.96 5.34 37.42 6.88 35.52 6.88H3.44C1.54 6.87 0 5.33 0 3.44C0 1.54 1.54 0 3.44 0Z" fill="#005E56"/>
<path d="M35.52 16.8102H3.44C1.55 16.8102 0 15.2602 0 13.3702C0 11.4802 1.55 9.93018 3.44 9.93018H35.52C37.41 9.93018 38.96 11.4802 38.96 13.3702C38.96 15.2602 37.41 16.8102 35.52 16.8102Z" fill="#005E56"/>
<path d="M35.52 26.7399H3.44C1.55 26.7399 0 25.1899 0 23.2999C0 21.4099 1.55 19.8599 3.44 19.8599H35.52C37.41 19.8599 38.96 21.4099 38.96 23.2999C38.96 25.1899 37.41 26.7399 35.52 26.7399Z" fill="#005E56"/>
</g>
<defs>
<clipPath id="clip0_166_1643">
<rect width="38.96" height="36.67" fill="white"/>
</clipPath>
</defs>
</svg>
